P2
 4 4
 255
 11 12 13 14 21 22 23 24 41 42 43 44 71 72 73 74
